<svg width="13" height="17" viewBox="0 0 13 17" fill="none" xmlns="http://www.w3.org/2000/svg">
<path d="M6.18342 16.1076C1.64286 9.52514 0.800049 8.84958 0.800049 6.43042C0.800049 3.1167 3.48633 0.43042 6.80005 0.43042C10.1138 0.43042 12.8 3.1167 12.8 6.43042C12.8 8.84958 11.9572 9.52514 7.41667 16.1076C7.1187 16.538 6.48136 16.538 6.18342 16.1076ZM6.80005 8.93042C8.18077 8.93042 9.30005 7.81114 9.30005 6.43042C9.30005 5.0497 8.18077 3.93042 6.80005 3.93042C5.41933 3.93042 4.30005 5.0497 4.30005 6.43042C4.30005 7.81114 5.41933 8.93042 6.80005 8.93042Z" fill="#FFB30E"/>
</svg>
