<svg width="671" height="17" viewBox="0 0 671 17" fill="none" xmlns="http://www.w3.org/2000/svg">
<path d="M300.827 16.1722C47.0971 9.58971 0 8.91415 0 6.495C0 3.18128 150.112 0.494995 335.285 0.494995C520.458 0.494995 670.57 3.18128 670.57 6.495C670.57 8.91415 623.473 9.58971 369.743 16.1722C353.092 16.6026 317.476 16.6026 300.827 16.1722ZM335.285 8.995C412.441 8.995 474.987 7.87571 474.987 6.495C474.987 5.11428 412.441 3.995 335.285 3.995C258.129 3.995 195.583 5.11428 195.583 6.495C195.583 7.87571 258.129 8.995 335.285 8.995Z" fill="#F17228"/>
</svg>
