<svg width="12" height="17" viewBox="0 0 12 17" fill="none" xmlns="http://www.w3.org/2000/svg">
<path d="M5.38338 16.1076C0.842813 9.52514 0 8.84958 0 6.43042C0 3.1167 2.68628 0.43042 6 0.43042C9.31372 0.43042 12 3.1167 12 6.43042C12 8.84958 11.1572 9.52514 6.61662 16.1076C6.31866 16.538 5.68131 16.538 5.38338 16.1076ZM6 8.93042C7.38072 8.93042 8.5 7.81114 8.5 6.43042C8.5 5.0497 7.38072 3.93042 6 3.93042C4.61928 3.93042 3.5 5.0497 3.5 6.43042C3.5 7.81114 4.61928 8.93042 6 8.93042Z" fill="#FFB30E"/>
</svg>
