<svg width="16" height="17" viewBox="0 0 16 17" fill="none" xmlns="http://www.w3.org/2000/svg">
<path d="M0 7.89895V1.52026C0 0.691826 0.671562 0.0202637 1.5 0.0202637H7.87869C8.27651 0.0202658 8.65804 0.178302 8.93934 0.459607L15.5607 7.08092C16.1464 7.6667 16.1464 8.61645 15.5607 9.20223L9.18197 15.5809C8.59619 16.1667 7.64644 16.1667 7.06066 15.5809L0.439344 8.95961C0.158039 8.6783 2.08024e-06 8.29677 0 7.89895ZM3.5 2.02026C2.67156 2.02026 2 2.69183 2 3.52026C2 4.3487 2.67156 5.02026 3.5 5.02026C4.32844 5.02026 5 4.3487 5 3.52026C5 2.69183 4.32844 2.02026 3.5 2.02026Z" fill="#FFFEFE"/>
</svg>
