<svg width="24" height="24" viewBox="0 0 24 24" fill="none" xmlns="http://www.w3.org/2000/svg">
<path d="M21.2526 7.69471C21.2673 7.89928 21.2673 8.1039 21.2673 8.30847C21.2673 14.5482 16.5181 21.7377 7.83798 21.7377C5.1638 21.7377 2.67962 20.9632 0.589966 19.6189C0.969916 19.6627 1.3352 19.6773 1.72977 19.6773C3.93629 19.6773 5.96752 18.9321 7.58956 17.6608C5.51452 17.6169 3.77557 16.2579 3.17643 14.3874C3.46872 14.4313 3.76095 14.4605 4.06786 14.4605C4.49162 14.4605 4.91542 14.402 5.30995 14.2998C3.14724 13.8614 1.52515 11.9617 1.52515 9.66746V9.60903C2.15349 9.95975 2.88419 10.1789 3.65862 10.2081C2.3873 9.36056 1.55439 7.9139 1.55439 6.27724C1.55439 5.40048 1.78816 4.59677 2.19734 3.89534C4.52081 6.75948 8.01332 8.6299 11.9295 8.83451C11.8565 8.4838 11.8126 8.11852 11.8126 7.75318C11.8126 5.15205 13.9169 3.0332 16.5326 3.0332C17.8916 3.0332 19.1191 3.60311 19.9813 4.52372C21.048 4.31915 22.0709 3.92458 22.9769 3.38392C22.6262 4.47991 21.8809 5.40053 20.9019 5.985C21.8517 5.88276 22.7724 5.61967 23.6199 5.25438C22.977 6.18957 22.1733 7.02248 21.2526 7.69471Z" fill="#BDBDBD"/>
</svg>
