<svg width="16" height="17" viewBox="0 0 16 17" fill="none" xmlns="http://www.w3.org/2000/svg">
<path d="M0 8.11892V1.74023C0 0.911797 0.671562 0.240234 1.5 0.240234H7.87869C8.27651 0.240236 8.65804 0.398273 8.93934 0.679578L15.5607 7.30089C16.1464 7.88667 16.1464 8.83642 15.5607 9.4222L9.18197 15.8009C8.59619 16.3867 7.64644 16.3867 7.06066 15.8009L0.439344 9.17958C0.158039 8.89827 2.08024e-06 8.51675 0 8.11892ZM3.5 2.24023C2.67156 2.24023 2 2.9118 2 3.74023C2 4.56867 2.67156 5.24023 3.5 5.24023C4.32844 5.24023 5 4.56867 5 3.74023C5 2.9118 4.32844 2.24023 3.5 2.24023Z" fill="#FFFEFE"/>
</svg>
