<svg width="20" height="17" viewBox="0 0 20 17" fill="none" xmlns="http://www.w3.org/2000/svg">
<path d="M16.0282 6.495C15.5625 6.49187 15.1188 6.56687 14.7032 6.71062L13.675 4.995H16.25C16.6657 4.995 17 4.66062 17 4.245V3.245C17 2.82937 16.6657 2.495 16.25 2.495H14.8344C14.6219 2.495 14.4188 2.58562 14.2782 2.74187L13.1063 4.045L12.3938 2.8575C12.2563 2.6325 12.0125 2.495 11.75 2.495H9.25004C8.97504 2.495 8.75004 2.72 8.75004 2.995V3.495C8.75004 3.77 8.97504 3.995 9.25004 3.995H11.325L11.925 4.995H7.12191C6.56879 4.27312 5.71879 3.745 4.00004 3.745H2.26566C1.84379 3.745 1.49066 4.08875 1.50004 4.51062C1.50629 4.91687 1.84066 5.245 2.25004 5.245H4.00004C4.76566 5.245 5.20941 5.58562 5.49379 6.02L5.14066 6.66062C4.73441 6.53875 4.30004 6.4825 3.85004 6.49812C1.74691 6.57312 0.0500353 8.295 3.53393e-05 10.4012C-0.0499647 12.6544 1.75941 14.495 4.00004 14.495C5.86254 14.495 7.42816 13.22 7.87504 11.495H10.5063C10.9344 11.495 11.275 11.1387 11.2563 10.7106C11.1907 9.23874 11.8032 7.78249 13.0125 6.80437L13.4032 7.45437C12.5407 8.195 11.9938 9.29499 12.0032 10.5231C12.0188 12.6981 13.7907 14.4762 15.9657 14.495C18.2032 14.5169 20.0219 12.6981 20.0032 10.4606C19.9813 8.28562 18.2032 6.51062 16.0282 6.495ZM4.00004 12.995C2.62191 12.995 1.50004 11.8731 1.50004 10.495C1.50004 9.11687 2.62191 7.995 4.00004 7.995C4.13129 7.995 4.26254 8.00437 4.39066 8.02625L3.09379 10.3825C2.81879 10.8825 3.18129 11.495 3.75004 11.495H6.29066C5.90316 12.3762 5.02191 12.995 4.00004 12.995ZM18.4969 10.6325C18.4282 11.9012 17.4032 12.9262 16.1375 12.9919C14.6969 13.07 13.5 11.92 13.5 10.495C13.5 9.82625 13.7625 9.21999 14.1907 8.77312L15.7344 11.3481C15.875 11.5856 16.1844 11.6606 16.4219 11.52L16.85 11.2637C17.0875 11.1231 17.1625 10.8137 17.0219 10.5762L15.5032 8.04812C15.6657 8.01375 15.8313 7.99812 16 7.99812C17.425 7.995 18.5719 9.19187 18.4969 10.6325Z" fill="#F17228"/>
</svg>
