<svg width="21" height="24" viewBox="0 0 21 24" fill="none" xmlns="http://www.w3.org/2000/svg">
<path d="M10.0845 7.2125C7.22301 7.2125 4.91496 9.52 4.91496 12.3808C4.91496 15.2415 7.22301 17.549 10.0845 17.549C12.9459 17.549 15.254 15.2415 15.254 12.3808C15.254 9.52 12.9459 7.2125 10.0845 7.2125ZM10.0845 15.7408C8.23532 15.7408 6.72361 14.234 6.72361 12.3808C6.72361 10.5276 8.23082 9.02072 10.0845 9.02072C11.9381 9.02072 13.4453 10.5276 13.4453 12.3808C13.4453 14.234 11.9336 15.7408 10.0845 15.7408ZM16.6712 7.00109C16.6712 7.6713 16.1313 8.20657 15.4654 8.20657C14.795 8.20657 14.2597 7.6668 14.2597 7.00109C14.2597 6.33538 14.7995 5.79562 15.4654 5.79562C16.1313 5.79562 16.6712 6.33538 16.6712 7.00109ZM20.095 8.22456C20.0185 6.60976 19.6496 5.17938 18.4663 4.00089C17.2876 2.82241 15.8568 2.45357 14.2417 2.3726C12.577 2.27814 7.58744 2.27814 5.92276 2.3726C4.31208 2.44907 2.88135 2.81791 1.69808 3.9964C0.51481 5.17489 0.150381 6.60526 0.0693964 8.22006C-0.0250853 9.88434 -0.0250853 14.8727 0.0693964 16.537C0.145882 18.1517 0.51481 19.5821 1.69808 20.7606C2.88135 21.9391 4.30758 22.3079 5.92276 22.3889C7.58744 22.4834 12.577 22.4834 14.2417 22.3889C15.8568 22.3124 17.2876 21.9436 18.4663 20.7606C19.6451 19.5821 20.014 18.1517 20.095 16.537C20.1895 14.8727 20.1895 9.88884 20.095 8.22456ZM17.9444 18.3227C17.5935 19.2043 16.9141 19.8835 16.0278 20.2388C14.7006 20.7651 11.5512 20.6437 10.0845 20.6437C8.61774 20.6437 5.46385 20.7606 4.14111 20.2388C3.25928 19.888 2.57991 19.2088 2.22448 18.3227C1.69808 16.9958 1.81956 13.8471 1.81956 12.3808C1.81956 10.9144 1.70258 7.76126 2.22448 6.43884C2.57541 5.55722 3.25478 4.87801 4.14111 4.52267C5.46835 3.9964 8.61774 4.11784 10.0845 4.11784C11.5512 4.11784 14.7051 4.00089 16.0278 4.52267C16.9096 4.87352 17.589 5.55272 17.9444 6.43884C18.4708 7.76576 18.3494 10.9144 18.3494 12.3808C18.3494 13.8471 18.4708 17.0003 17.9444 18.3227Z" fill="#BDBDBD"/>
</svg>
