<svg width="40" height="41" viewBox="0 0 40 41" fill="none" xmlns="http://www.w3.org/2000/svg">
<path d="M20 39.8853C9.29688 39.8853 0.625 31.2134 0.625 20.5103C0.625 9.80713 9.29688 1.13525 20 1.13525C30.7031 1.13525 39.375 9.80713 39.375 20.5103C39.375 31.2134 30.7031 39.8853 20 39.8853ZM11.1016 21.8384L21.6875 32.4243C22.4219 33.1587 23.6094 33.1587 24.3359 32.4243L25.6641 31.0962C26.3984 30.3618 26.3984 29.1743 25.6641 28.4478L17.7266 20.5103L25.6641 12.5728C26.3984 11.8384 26.3984 10.6509 25.6641 9.92432L24.3359 8.59619C23.6016 7.86182 22.4141 7.86182 21.6875 8.59619L11.1016 19.1821C10.3672 19.9165 10.3672 21.104 11.1016 21.8384Z" fill="#FFB30E"/>
</svg>
