<svg width="17" height="17" viewBox="0 0 17 17" fill="none" xmlns="http://www.w3.org/2000/svg">
<path d="M8.13 0.490234C3.84875 0.490234 0.380005 3.95898 0.380005 8.24023C0.380005 12.5215 3.84875 15.9902 8.13 15.9902C12.4113 15.9902 15.88 12.5215 15.88 8.24023C15.88 3.95898 12.4113 0.490234 8.13 0.490234ZM11.0203 10.2715L10.3953 11.0527C10.3543 11.104 10.3036 11.1467 10.2461 11.1784C10.1886 11.2101 10.1254 11.2301 10.0601 11.2374C9.99483 11.2446 9.92878 11.2389 9.86571 11.2207C9.80263 11.2024 9.74378 11.1719 9.6925 11.1309L7.59875 9.57711C7.45246 9.45998 7.33438 9.31146 7.25324 9.14252C7.1721 8.97359 7.12998 8.78858 7.13 8.60117V3.74023C7.13 3.60763 7.18268 3.48045 7.27645 3.38668C7.37022 3.29291 7.4974 3.24023 7.63 3.24023H8.63C8.76261 3.24023 8.88979 3.29291 8.98356 3.38668C9.07733 3.48045 9.13 3.60763 9.13 3.74023V8.24023L10.9425 9.56836C10.9938 9.6094 11.0365 9.66015 11.0682 9.71771C11.0999 9.77526 11.1199 9.8385 11.1271 9.9038C11.1344 9.9691 11.1286 10.0352 11.1103 10.0983C11.092 10.1614 11.0614 10.2202 11.0203 10.2715Z" fill="#FFFEFE"/>
</svg>
