<svg width="16" height="17" viewBox="0 0 16 17" fill="none" xmlns="http://www.w3.org/2000/svg">
<path d="M15.6969 6.89268C15.8187 6.7958 16 6.88643 16 7.03955V13.4302C16 14.2583 15.3281 14.9302 14.5 14.9302H1.5C0.671875 14.9302 0 14.2583 0 13.4302V7.04268C0 6.88643 0.178125 6.79893 0.303125 6.8958C1.00312 7.43955 1.93125 8.13018 5.11875 10.4458C5.77813 10.9271 6.89062 11.9396 8 11.9333C9.11563 11.9427 10.25 10.9083 10.8844 10.4458C14.0719 8.13018 14.9969 7.43643 15.6969 6.89268ZM8 10.9302C8.725 10.9427 9.76875 10.0177 10.2937 9.63643C14.4406 6.62705 14.7562 6.36455 15.7125 5.61455C15.8937 5.47393 16 5.25518 16 5.02393V4.43018C16 3.60205 15.3281 2.93018 14.5 2.93018H1.5C0.671875 2.93018 0 3.60205 0 4.43018V5.02393C0 5.25518 0.10625 5.4708 0.2875 5.61455C1.24375 6.36143 1.55938 6.62705 5.70625 9.63643C6.23125 10.0177 7.275 10.9427 8 10.9302Z" fill="#BDBDBD"/>
</svg>
