<svg width="14" height="17" viewBox="0 0 14 17" fill="none" xmlns="http://www.w3.org/2000/svg">
<path d="M11 5.495V4.495C11 2.28937 9.20559 0.494995 7 0.494995C4.79437 0.494995 3 2.28937 3 4.495V5.495H0V13.995C0 15.3757 1.11928 16.495 2.5 16.495H11.5C12.8807 16.495 14 15.3757 14 13.995V5.495H11ZM5 4.495C5 3.39218 5.89719 2.495 7 2.495C8.10281 2.495 9 3.39218 9 4.495V5.495H5V4.495ZM10 8.245C9.58578 8.245 9.25 7.90921 9.25 7.495C9.25 7.08078 9.58578 6.745 10 6.745C10.4142 6.745 10.75 7.08078 10.75 7.495C10.75 7.90921 10.4142 8.245 10 8.245ZM4 8.245C3.58578 8.245 3.25 7.90921 3.25 7.495C3.25 7.08078 3.58578 6.745 4 6.745C4.41422 6.745 4.75 7.08078 4.75 7.495C4.75 7.90921 4.41422 8.245 4 8.245Z" fill="#757575"/>
</svg>
