<svg width="40" height="41" viewBox="0 0 40 41" fill="none" xmlns="http://www.w3.org/2000/svg">
<path d="M20 1.13525C30.7031 1.13525 39.375 9.80713 39.375 20.5103C39.375 31.2134 30.7031 39.8853 20 39.8853C9.29688 39.8853 0.625 31.2134 0.625 20.5103C0.625 9.80713 9.29688 1.13525 20 1.13525ZM28.8984 19.1821L18.3125 8.59619C17.5781 7.86182 16.3906 7.86182 15.6641 8.59619L14.3359 9.92432C13.6016 10.6587 13.6016 11.8462 14.3359 12.5728L22.2734 20.5103L14.3359 28.4478C13.6016 29.1821 13.6016 30.3696 14.3359 31.0962L15.6641 32.4243C16.3984 33.1587 17.5859 33.1587 18.3125 32.4243L28.8984 21.8384C29.6328 21.104 29.6328 19.9165 28.8984 19.1821Z" fill="#FFB30E"/>
</svg>
