<svg width="17" height="17" viewBox="0 0 17 17" fill="none" xmlns="http://www.w3.org/2000/svg">
<path d="M8.13 0.270264C3.84875 0.270264 0.380005 3.73901 0.380005 8.02026C0.380005 12.3015 3.84875 15.7703 8.13 15.7703C12.4113 15.7703 15.88 12.3015 15.88 8.02026C15.88 3.73901 12.4113 0.270264 8.13 0.270264ZM11.0203 10.0515L10.3953 10.8328C10.3543 10.884 10.3036 10.9267 10.2461 10.9584C10.1886 10.9901 10.1254 11.0101 10.0601 11.0174C9.99483 11.0246 9.92878 11.019 9.86571 11.0007C9.80263 10.9824 9.74378 10.9519 9.6925 10.9109L7.59875 9.35714C7.45246 9.24001 7.33438 9.09148 7.25324 8.92255C7.1721 8.75362 7.12998 8.56861 7.13 8.3812V3.52026C7.13 3.38766 7.18268 3.26048 7.27645 3.16671C7.37022 3.07294 7.4974 3.02026 7.63 3.02026H8.63C8.76261 3.02026 8.88979 3.07294 8.98356 3.16671C9.07733 3.26048 9.13 3.38766 9.13 3.52026V8.02026L10.9425 9.34839C10.9938 9.38943 11.0365 9.44018 11.0682 9.49774C11.0999 9.55529 11.1199 9.61853 11.1271 9.68383C11.1344 9.74912 11.1286 9.81521 11.1103 9.8783C11.092 9.94139 11.0614 10.0002 11.0203 10.0515Z" fill="#FFFEFE"/>
</svg>
