<svg width="13" height="17" viewBox="0 0 13 17" fill="none" xmlns="http://www.w3.org/2000/svg">
<path d="M5.57332 16.1076C1.03275 9.52514 0.189941 8.84958 0.189941 6.43042C0.189941 3.1167 2.87622 0.43042 6.18994 0.43042C9.50366 0.43042 12.1899 3.1167 12.1899 6.43042C12.1899 8.84958 11.3471 9.52514 6.80657 16.1076C6.5086 16.538 5.87125 16.538 5.57332 16.1076ZM6.18994 8.93042C7.57066 8.93042 8.68994 7.81114 8.68994 6.43042C8.68994 5.0497 7.57066 3.93042 6.18994 3.93042C4.80922 3.93042 3.68994 5.0497 3.68994 6.43042C3.68994 7.81114 4.80922 8.93042 6.18994 8.93042Z" fill="#FFB30E"/>
</svg>
