<svg width="13" height="17" viewBox="0 0 13 17" fill="none" xmlns="http://www.w3.org/2000/svg">
<path d="M5.77339 16.1076C1.23283 9.52514 0.390015 8.84958 0.390015 6.43042C0.390015 3.1167 3.0763 0.43042 6.39001 0.43042C9.70373 0.43042 12.39 3.1167 12.39 6.43042C12.39 8.84958 11.5472 9.52514 7.00664 16.1076C6.70867 16.538 6.07133 16.538 5.77339 16.1076ZM6.39001 8.93042C7.77073 8.93042 8.89001 7.81114 8.89001 6.43042C8.89001 5.0497 7.77073 3.93042 6.39001 3.93042C5.0093 3.93042 3.89001 5.0497 3.89001 6.43042C3.89001 7.81114 5.0093 8.93042 6.39001 8.93042Z" fill="#FFB30E"/>
</svg>
