<svg width="13" height="17" viewBox="0 0 13 17" fill="none" xmlns="http://www.w3.org/2000/svg">
<path d="M5.97346 16.1076C1.4329 9.52514 0.590088 8.84958 0.590088 6.43042C0.590088 3.1167 3.27637 0.43042 6.59009 0.43042C9.90381 0.43042 12.5901 3.1167 12.5901 6.43042C12.5901 8.84958 11.7473 9.52514 7.20671 16.1076C6.90874 16.538 6.2714 16.538 5.97346 16.1076ZM6.59009 8.93042C7.97081 8.93042 9.09009 7.81114 9.09009 6.43042C9.09009 5.0497 7.97081 3.93042 6.59009 3.93042C5.20937 3.93042 4.09009 5.0497 4.09009 6.43042C4.09009 7.81114 5.20937 8.93042 6.59009 8.93042Z" fill="#FFB30E"/>
</svg>
